<?xml version="1.0" standalone="no"?>
<!DOCTYPE svg PUBLIC "-//W3C//DTD SVG 20010904//EN"
 "http://www.w3.org/TR/2001/REC-SVG-20010904/DTD/svg10.dtd">
<svg version="1.0" xmlns="http://www.w3.org/2000/svg"
 width="310.000000pt" height="310.000000pt" viewBox="0 0 310.000000 310.000000"
 preserveAspectRatio="xMidYMid meet">
<metadata>
Created by potrace 1.11, written by Peter Selinger 2001-2013
</metadata>
<g transform="translate(0.000000,310.000000) scale(0.100000,-0.100000)"
fill="#000000" stroke="none">
<path d="M1967 2630 c-4 -96 -7 -224 -7 -285 0 -129 -15 -284 -28 -297 -6 -6
-3 -30 9 -63 21 -61 50 -334 40 -374 -11 -38 -56 -59 -147 -69 -182 -21 -244
22 -244 170 0 34 -5 111 -12 171 -11 99 -11 112 5 139 24 41 11 51 -16 13 -12
-17 -34 -42 -48 -56 -25 -23 -26 -29 -19 -70 5 -24 14 -93 21 -154 6 -60 14
-129 16 -152 l5 -43 -53 -25 c-30 -14 -67 -25 -84 -26 -29 -1 -30 -1 -5 -9 44
-14 219 -11 324 6 81 13 113 14 162 5 34 -6 78 -11 97 -11 l37 0 -5 288 c-2
158 -9 307 -14 332 -6 25 -11 155 -12 290 -1 135 -4 279 -8 320 -5 66 -7 53
-14 -100z"/>
<path d="M2342 2580 c0 -14 2 -19 5 -12 2 6 2 18 0 25 -3 6 -5 1 -5 -13z"/>
<path d="M2340 2420 c0 -73 3 -131 6 -128 7 7 6 249 -1 256 -3 3 -5 -55 -5
-128z"/>
<path d="M951 2325 c0 -16 8 -79 19 -140 23 -126 68 -310 69 -280 1 32 -69
404 -84 440 -2 6 -4 -3 -4 -20z"/>
<path d="M580 2320 c-5 -35 19 -169 86 -495 62 -299 63 -300 57 -568 -6 -280
3 -401 43 -556 52 -198 125 -324 251 -434 137 -118 262 -170 458 -189 138 -13
393 -4 458 16 134 42 280 152 384 290 54 73 132 225 162 319 47 149 65 331 40
408 -20 59 -24 50 -25 -59 0 -78 -7 -128 -23 -187 -54 -193 -136 -299 -373
-483 -116 -90 -146 -112 -152 -112 -4 0 -31 -15 -59 -33 -94 -60 -144 -72
-307 -71 -121 0 -157 4 -220 23 -229 70 -417 212 -495 376 -89 187 -146 550
-124 800 11 127 10 135 -20 305 -17 96 -38 220 -47 275 -28 186 -52 300 -73
345 -11 25 -20 38 -21 30z"/>
<path d="M1743 2103 c15 -2 37 -2 50 0 12 2 0 4 -28 4 -27 0 -38 -2 -22 -4z"/>
<path d="M1143 1950 c-13 -15 -23 -38 -23 -49 0 -12 -10 -31 -22 -43 -20 -20
-22 -20 -35 -3 -15 22 -18 3 -3 -25 6 -11 17 -56 26 -102 8 -46 26 -121 39
-168 13 -47 26 -109 30 -139 4 -35 26 -98 61 -172 30 -65 54 -122 54 -127 0
-4 37 -45 83 -89 98 -96 153 -121 281 -128 45 -2 114 -14 152 -25 152 -47 145
-46 161 -24 19 25 12 117 -12 165 -31 60 -109 147 -141 159 -24 8 -40 7 -75
-5 -63 -23 -170 -20 -249 6 -102 33 -116 43 -149 110 -35 69 -40 127 -16 173
8 15 15 30 15 32 0 12 -32 0 -68 -26 -23 -16 -47 -30 -52 -30 -23 0 -38 71
-49 220 -11 160 -4 278 19 305 7 8 9 15 4 14 -5 0 -19 -13 -31 -29z"/>
<path d="M2363 1725 c0 -22 2 -30 4 -17 2 12 2 30 0 40 -3 9 -5 -1 -4 -23z"/>
<path d="M2372 1580 c0 -14 2 -19 5 -12 2 6 2 18 0 25 -3 6 -5 1 -5 -13z"/>
<path d="M2383 1500 c0 -30 2 -43 4 -27 2 15 2 39 0 55 -2 15 -4 2 -4 -28z"/>
<path d="M2391 1393 c-1 -57 -8 -63 -51 -38 -47 27 -54 15 -9 -17 24 -17 64
-50 88 -72 38 -36 41 -37 25 -12 -10 17 -26 66 -36 110 l-17 81 0 -52z"/>
<path d="M2470 1201 c0 -6 4 -13 10 -16 6 -3 7 1 4 9 -7 18 -14 21 -14 7z"/>
</g>
</svg>
